<svg class="icon" viewBox="0 0 1024 1024" xmlns="http://www.w3.org/2000/svg" width="200" height="200"><defs><style/></defs><path d="M1023.975 577.8c-.956 34.86-30.434 62.2-65.306 62.2H848v32c0 43.727-9.764 85.167-27.2 122.29l120.456 120.455c24.992 24.994 24.992 65.516 0 90.51-24.996 24.994-65.518 24.992-90.512 0L741.271 895.783C691.771 935.93 628.701 960 560 960V472c0-13.253-10.746-24-24-24h-48c-13.254 0-24 10.747-24 24v488c-68.702 0-131.772-24.07-181.272-64.216l-109.472 109.472c-24.996 24.994-65.518 24.992-90.512 0-24.992-24.994-24.992-65.516 0-90.51L203.2 794.29C185.764 757.167 176 715.727 176 672v-32H65.332C30.46 640 .982 612.66.026 577.8-.968 541.633 28.056 512 64 512h112V394.51l-93.256-93.255c-24.992-24.994-24.992-65.516 0-90.51 24.996-24.994 65.516-24.994 90.512 0L282.51 320h458.977l109.254-109.254c24.996-24.994 65.516-24.994 90.512 0 24.992 24.994 24.992 65.516 0 90.51L848 394.51V512h112c35.944 0 64.968 29.632 63.976 65.8zM514 0C390.288 0 290 100.288 290 224h448C738 100.288 637.711 0 514 0z"/></svg>