<svg class="icon" viewBox="0 0 1024 1024" xmlns="http://www.w3.org/2000/svg" width="200" height="200"><defs><style/></defs><path d="M400.595 345.365l-.948-245.022c-.42-18.881-16.018-30.215-34.956-30.637h-25.406c-18.88-.42-33.874 16.018-33.457 34.881l1.061 133.251L138.772 72.417c-18.274-18.311-47.844-18.311-66.119 0-18.218 18.314-18.218 47.907 0 66.236l166.575 164.885-127.697.512c-18.88-.477-36.394 12.606-39.26 34.899v24.08c.477 18.917 16.077 34.558 34.957 34.972l243.826-1.438c.362.035.608.171.928.171l17.1.378c9.441.226 17.9-3.467 23.923-9.593 6.124-6.083 8.382-14.58 8.131-24.078l-1.821-17.138c.001-.335 1.27-.562 1.27-.945zm365.616 356.086l127.524-.512c18.88.421 36.357-11.183 39.26-33.474v-24.077c-.478-18.922-16.134-34.558-34.957-35.037l-240.702 1.458c-.378 0-.605-.151-.967-.151l-17.062-.42c-9.441-.226-17.95 3.469-23.98 9.611-6.159 6.03-8.361 14.559-8.173 24.057l1.881 17.1c.033.42-1.234.661-1.234.986l.986 241.248c.477 18.863 16.078 30.162 34.957 30.576l24.017.037c18.827.433 33.874-16.055 33.403-34.941l-1.062-130.388 168.117 166.502c18.276 18.314 47.809 18.314 66.085 0 18.255-18.31 18.255-47.906 0-66.218L766.209 701.442zm-373.219-82.596c-6.028-6.14-14.541-9.834-23.923-9.61l-17.104.42c-.346 0-.566.151-.948.151l-243.81-1.458c-18.881.478-34.503 16.112-34.956 35.034v24.078c2.843 22.292 20.357 33.892 39.206 33.474l129.158.42-167.983 166.37c-18.234 18.255-18.234 47.906 0 66.218 18.256 18.314 47.845 18.314 66.102 0l168.137-165.418-1.079 131.185c-.42 18.922 14.579 35.413 33.424 34.938h25.406c18.937-.477 34.54-11.713 34.956-30.637l.987-243.05c0-.346-1.267-.571-1.267-.949l1.821-17.104c.206-9.495-1.993-18.025-8.116-24.053zm222.442-231.296c6.03 6.123 14.541 9.819 23.965 9.553l17.06-.378c.378 0 .608-.132.986-.19l244.19 1.457c18.88-.434 34.482-16.078 34.956-34.994l.058-24.078c-2.898-22.331-20.439-35.355-39.26-34.939l-129.573-.511 166.483-164.893c18.31-18.235 18.31-47.83.054-66.143-18.276-18.311-47.809-18.311-66.084 0L700.152 238.89l1.079-134.276c.454-18.863-14.598-35.355-33.424-34.939H643.79c-18.881.477-34.484 11.773-34.957 30.637l-.967 245.075c0 .378 1.251.608 1.251.948l-1.859 17.138c-.192 9.499 2.007 17.991 8.173 24.078z"/></svg>