<svg class="icon" viewBox="0 0 1024 1024" xmlns="http://www.w3.org/2000/svg" width="200" height="200"><defs><style/></defs><path d="M379.7 56.95H34.41q-14.24 0-24.32 9.49Q0 75.94 0 91.37v365.46q0 14.23 10.09 24.32t24.32 10.09H379.7q15.42 0 24.92-10.09 9.5-10.09 9.5-24.32V91.37q0-15.43-9.5-24.93-9.5-9.49-24.92-9.49zm0 552.94H34.41q-14.24 0-24.32 9.5Q0 628.89 0 644.3v345.29q0 14.24 10.09 24.32Q20.18 1024 34.41 1024H379.7q15.42 0 24.92-10.09 9.5-10.08 9.5-24.32V644.3q0-15.42-9.5-24.91-9.5-9.5-24.92-9.5zm552.93 0H587.35q-14.24 0-24.32 9.5-10.09 9.5-10.09 24.91v345.29q0 14.24 10.09 24.32 10.08 10.09 24.32 10.09h345.28q15.43 0 24.92-10.09 9.5-10.08 9.5-24.32V644.3q0-15.42-9.5-24.91-9.5-9.5-24.92-9.5zm71.2-391.56L805.67 20.17Q785.5 0 757.62 0q-27.88 0-46.87 20.17L511.41 218.33q-18.99 20.17-18.99 48.05 0 27.88 18.99 46.87l199.34 199.34q18.98 18.99 46.87 18.99 27.88 0 48.05-18.99l198.16-199.34q20.17-20.17 20.17-46.87 0-26.7-20.17-48.05zM758.21 449.71L574.29 265.79 758.21 81.87l183.92 183.92-183.92 183.92z" fill="#1296db"/></svg>