<svg class="icon" viewBox="0 0 1024 1024" xmlns="http://www.w3.org/2000/svg" width="200" height="200"><defs><style/></defs><path d="M913.118 959.462H727.853c-25.575 0-46.316-20.729-46.316-46.31 0-25.587 20.74-46.316 46.316-46.316h73.442L571.047 636.58l.056-.05c-8.065-8.333-13.074-19.643-13.074-32.146 0-25.582 20.736-46.322 46.311-46.322 12.52 0 23.819 5.014 32.151 13.074l.062-.05L866.796 801.33v-73.442c0-25.576 20.74-46.316 46.322-46.316 25.575 0 46.31 20.74 46.31 46.316v185.264c0 25.581-20.735 46.31-46.31 46.31zm0-617.532c-25.582 0-46.322-20.736-46.322-46.322V222.17L636.553 452.414l-.062-.05c-8.332 8.058-19.632 13.074-32.15 13.074-25.576 0-46.312-20.74-46.312-46.316 0-12.514 5.01-23.819 13.074-32.152l-.056-.056 230.248-230.248h-73.442c-25.575 0-46.316-20.729-46.316-46.31s20.74-46.323 46.316-46.323h185.265c25.575 0 46.31 20.74 46.31 46.322V295.61c0 25.585-20.735 46.32-46.31 46.32zM452.38 636.58L222.126 866.836h73.448c25.581 0 46.322 20.729 46.322 46.315 0 25.582-20.74 46.311-46.322 46.311h-185.26C84.74 959.462 64 938.733 64 913.152V727.887c0-25.576 20.74-46.316 46.315-46.316 25.582 0 46.316 20.74 46.316 46.316v73.442l230.248-230.243.05.05c8.34-8.059 19.644-13.074 32.152-13.074 25.581 0 46.322 20.74 46.322 46.322 0 12.503-5.014 23.813-13.074 32.146l.052.05zm-33.3-171.143c-12.507 0-23.812-5.015-32.15-13.074l-.05.05L156.63 222.17v73.437c0 25.586-20.735 46.322-46.316 46.322C84.74 341.93 64 321.194 64 295.608V110.354c0-25.581 20.74-46.322 46.315-46.322h185.259c25.581 0 46.322 20.74 46.322 46.322s-20.74 46.311-46.322 46.311h-73.448L452.38 386.913l-.05.056c8.059 8.333 13.074 19.639 13.074 32.152 0 25.576-20.74 46.317-46.322 46.317z"/></svg>