<svg class="icon" viewBox="0 0 1024 1024" xmlns="http://www.w3.org/2000/svg" width="200" height="200"><defs><style/></defs><path d="M1024 512q-5.39-217.38-150-362Q729.38 5.38 512 0 294.62 5.39 150 150 5.38 294.62 0 512q0 111.38 43.12 206.6 43.12 95.21 118.56 165.27l-1.79 1.8 19.76 14.37q12.57 12.58 26.95 23.36l8.98 5.39q14.37 10.77 32.34 21.55l3.59 3.6q17.96 8.98 35.93 17.96l1.8 1.8q19.76 8.98 39.52 16.17l3.59 1.79q19.76 7.19 39.52 12.58l5.39 1.8q19.76 5.38 39.53 8.98l5.39 1.79q21.55 3.6 41.31 5.39h5.39q21.56 1.8 43.12 1.8t43.12-1.8h5.39q19.76-1.79 41.31-5.39l3.6-1.79q21.56-3.6 41.32-8.98l3.59-1.8q21.56-5.39 41.32-12.58l3.59-1.79q19.76-7.19 39.52-16.17l1.8-1.8q17.97-8.98 35.93-19.76l3.59-1.8q17.97-10.78 32.34-21.55l8.98-5.39q14.38-10.78 28.75-23.36l16.17-16.17q75.45-70.06 118.56-165.27Q1024 623.38 1024 512zm-971.9-1.8q3.59-194.02 133.84-324.26Q316.19 55.69 512 50.31q195.82 5.39 326.07 135.63Q968.31 316.19 971.9 510.2q0 100.61-38.63 185.94t-105.1 150.01q-25.15-23.36-61.08-39.52-35.93-16.16-80.84-28.75l-26.95-12.57q-8.98-3.6-12.57-7.19l-7.19-7.19q-7.19-7.18-12.57-13.47-5.38-6.29-5.38-18.86v-53.9q25.15-32.34 41.32-89.82 12.57-5.39 23.35-18.87 10.78-13.48 14.37-29.64 7.19-37.72-7.18-55.69 19.76-75.45 17.07-134.73-2.7-59.29-28.75-93.42-26.05-34.14-72.76-34.14-3.59-3.59-7.19-7.18-7.18-12.58-23.35-20.66-16.17-8.09-55.69-8.09h-5.39q-100.6 0-150.91 59.29-62.87 77.25-35.93 240.73-10.77 17.96-5.39 52.1 3.6 16.16 12.58 28.74 8.98 12.57 19.76 19.76 21.56 62.88 46.71 91.62 1.8 48.51 0 57.49-1.8 14.37-16.17 28.74-7.18 7.19-17.96 13.48-10.78 6.29-28.75 13.48-46.71 12.58-83.53 27.85-36.83 15.27-61.98 38.62-66.47-62.88-105.09-148.21-38.62-85.33-38.62-185.94z"/></svg>