<?xml version="1.0" encoding="utf-8"?>
<!-- Generator: Adobe Illustrator 22.0.0, SVG Export Plug-In . SVG Version: 6.00 Build 0)  -->
<svg version="1.1" id="图层_1" xmlns="http://www.w3.org/2000/svg" xmlns:xlink="http://www.w3.org/1999/xlink" x="0px" y="0px"
	 viewBox="0 0 100 100" style="enable-background:new 0 0 100 100;" xml:space="preserve">
<style type="text/css">
	.st0{fill:#FFFFFF;}
	.st1{fill:#E34553;}
	.st2{fill:#184698;}
	.st3{fill:#F6C81D;}
	.st4{fill:#FF4B28;}
	.st5{fill:#16AD68;}
	.st6{fill:#3F1000;}
	.st7{fill:#2B2B2B;}
</style>
<g>
	<g>
		<path class="st0" d="M20,96.7v-1.4c0-7.2-5.9-13.1-13.1-13.1H5.5V23.7h1.4c7.2,0,13.1-5.9,13.1-13.1V9.2h58.4v1.4
			c0,7.2,5.9,13.1,13.1,13.1H93v58.4h-1.4c-7.2,0-13.1,5.9-13.1,13.1v1.4H20z"/>
	</g>
	<g>
		<path class="st1" d="M77,95.2H21.5c0-8-6.5-14.5-14.5-14.5V25.1c8,0,14.5-6.5,14.5-14.5H77c0,8,6.5,14.5,14.5,14.5v55.5
			C83.5,80.7,77,87.2,77,95.2z"/>
		<path class="st0" d="M77.3,95.5H21.2v-0.3c0-7.9-6.4-14.2-14.2-14.2H6.7V24.8h0.3c7.9,0,14.2-6.4,14.2-14.2v-0.3h56.1v0.3
			c0,7.9,6.4,14.2,14.2,14.2h0.3V81h-0.3c-7.9,0-14.2,6.4-14.2,14.2V95.5z M21.8,94.9h55c0.2-7.9,6.6-14.4,14.5-14.5v-55
			c-7.9-0.2-14.4-6.6-14.5-14.5h-55c-0.2,7.9-6.6,14.4-14.5,14.5v55C15.2,80.5,21.6,87,21.8,94.9z"/>
	</g>
	<g>
		<path class="st2" d="M71.6,89.7H26.9c0-8-6.5-14.5-14.5-14.5V30.6c8,0,14.5-6.5,14.5-14.5h44.6c0,8,6.5,14.5,14.5,14.5v44.6
			C78.1,75.2,71.6,81.7,71.6,89.7z"/>
		<path class="st0" d="M71.8,90H26.7v-0.3c0-7.9-6.4-14.2-14.2-14.2h-0.3V30.3h0.3c7.9,0,14.2-6.4,14.2-14.2v-0.3h45.2v0.3
			c0,7.9,6.4,14.2,14.2,14.2h0.3v45.2h-0.3c-7.9,0-14.2,6.4-14.2,14.2V90z M27.2,89.5h44c0.2-7.9,6.6-14.4,14.5-14.5v-44
			c-7.9-0.2-14.4-6.6-14.5-14.5h-44c-0.2,7.9-6.6,14.4-14.5,14.5v44C20.6,75.1,27.1,81.5,27.2,89.5z"/>
	</g>
</g>
<path class="st0" d="M63.3,97.2c-2.9,0-4.6-0.9-5.5-1.8c-2.4,0.9-4.9,1.3-7.4,1.3c-1.3,0-2.5-0.1-3.8-0.3c-1.6-0.3-2.8-0.7-3.7-1
	c-0.2,0.3-0.5,0.5-0.8,0.7c-1,0.7-2.3,1-3.9,1c-1.4,0-2.6-0.2-2.7-0.3l-0.2,0l-0.2-0.1c-8.1-3.8-9.3-8.2-10-13.6
	c-0.5-3.9,0.5-6.9,1.2-8.3c-0.8-0.9-1.4-2-2-3.1c-1.6-3.2-2.2-7-1.8-10.5c0.5-4.2,4.8-11.5,6.8-14.9c-4.7-3.4-5.3-8-5.3-8.2
	c0-0.2,0-0.4-0.1-0.6l0-0.1c-0.2-1.8-0.6-5.2,0.3-9.3c-0.2-0.7-0.7-2.3-1.5-3.4c-1.2-1.6-5.5-10.3-2.6-13.9c0.7-0.8,1.7-1.2,3.1-1.3
	c0.1,0,0.2,0,0.4,0c3.6,0,9.8,2.5,12.4,4.1c1.7-0.9,5.2-2.5,8.5-2.5c0.3,0,0.6,0,0.9,0c0.4-1,1-2.3,1.8-3.6c2.2-3.7,5.2-5.6,8.5-5.6
	c0.1,0,0.3,0,0.4,0c6.8,0.3,7.1,11.8,7,15.2l0.7,0.8c0.7-0.6,1.7-1.1,2.8-1.1c0.5,0,0.9,0.1,1.4,0.3c7.6,3,10,11,10.6,17.3
	c0.6,5.9,0.2,11.3-1.4,16.1c-0.9,2.7-2.1,5.2-3.6,7.1c0,1.2,0.2,4.6,1.3,7.8c0.6,1.8,2.2,6.5,2.7,11.4c0.7,6-0.3,10.5-2.8,13.3
	c-0.7,1-4.7,6.9-11.4,7C63.5,97.2,63.4,97.2,63.3,97.2z M59.7,42.8L59.7,42.8z M63.9,39.7L63.9,39.7z"/>
<g>
	<g>
		<g>
			<g>
				<g>
					<g>
						<g>
							<g>
								<g>
									<g>
										<g>
											<path class="st3" d="M46.8,13.2c0.4-1.3,3.1-9.8,9.3-9.5c5.6,0.3,5.2,13.6,5.2,13.8l0,0.1l2.3,2.7c-0.3,0.5-0.7,1.2-1,2
												c-0.7,2-0.6,3.6,0.3,4.7c0.4,0.5,0.8,0.9,1.2,1.3c1.4,1.6,2.6,2.9,2.8,3.6c0.1,0.4,0.3,1.3,0.2,2.5
												c-1.7,5.4-7.1,9.2-16.3,11.5C45.9,47,41.6,47.4,38,47c-2.9-0.3-5.4-1.2-7.4-2.6c-1.5-1.1-2.7-2.5-3.6-4.1
												c-0.6-1.2-0.9-2.3-0.9-2.7c0-0.2,0-0.4-0.1-0.6c-0.2-1.8-0.6-5.1,0.4-9l0-0.1l0-0.1c0-0.1-0.7-2.6-2-4.4
												c-0.6-0.8-1.7-3.1-2.5-5.6c-0.9-2.8-0.9-4.9-0.1-5.9c0.3-0.4,0.9-0.6,1.7-0.6c3.8-0.2,11.4,3.3,12.3,4.2l0.2,0.2l0.2-0.1
												c0.1,0,0.1-0.1,0.2-0.1c0.1-0.1,0.3-0.2,0.4-0.2c0.2-0.1,0.4-0.2,0.6-0.3c0.3-0.1,0.6-0.3,0.8-0.4c0.3-0.1,0.7-0.3,1-0.4
												c0.4-0.1,0.7-0.3,1.1-0.4c0.4-0.1,0.8-0.3,1.2-0.4c0.4-0.1,0.8-0.2,1.3-0.3c0.4-0.1,0.8-0.1,1.3-0.2c0.4,0,0.8,0,1.2,0
												c0.3,0,0.6,0.1,0.9,0.1C46.4,13,46.6,13.1,46.8,13.2C46.8,13.1,46.8,13.1,46.8,13.2z"/>
										</g>
									</g>
								</g>
							</g>
						</g>
					</g>
				</g>
			</g>
		</g>
		<g>
			<g>
				<g>
					<g>
						<g>
							<g>
								<g>
									<g>
										<g>
											<path class="st4" d="M66.8,41.2c-1.7,3.8-6.1,6.9-13,9C44.5,53,39.2,51.6,36.4,50c-2-1.2-3.1-2.7-3.6-3.6
												c1.5,0.6,3.2,1.1,5.1,1.3c1,0.1,2,0.2,3,0.2c3,0,6.4-0.5,10.1-1.4c8.8-2.1,14.3-5.8,16.4-10.8
												C67.6,36.9,67.8,38.9,66.8,41.2z"/>
										</g>
									</g>
								</g>
							</g>
						</g>
					</g>
				</g>
			</g>
		</g>
		<g>
			<g>
				<g>
					<g>
						<g>
							<g>
								<g>
									<g>
										<g>
											<path class="st3" d="M73.5,88.7L73.5,88.7c-0.1,0.1-3.9,6.1-9.9,6.3c-2.2,0-4.7-0.5-5.1-2.3c-0.2-0.9,0.3-1.8,1.2-2.2
												c2.3-1,5.4-1.1,5.4-1.1l0-0.7c-0.1,0-3.3,0.1-5.7,1.2c-1.2,0.5-1.8,1.8-1.6,3c0,0.1,0,0.1,0.1,0.2
												c-4.4,1.8-8.4,1.6-10.9,1.2c-2.2-0.4-3.8-1-4.4-1.3c0.2-1.3,0-2.3-0.5-3c-0.6-0.7-1.3-0.8-1.3-0.8l-0.1,0.7
												c0,0,0.5,0.1,0.9,0.6c0.4,0.5,0.5,1.4,0.3,2.6c-0.1,0.6-0.4,1-0.9,1.3c-1.6,1.1-4.7,0.5-5.1,0.4c-7.2-3.4-8.2-7-8.8-12
												c-0.5-3.9,0.8-6.8,1.3-7.7c0.2,0.2,0.4,0.4,0.6,0.6c0.8,0.7,1.7,1.2,2.6,1.7c0.9,0.4,1.7,0.6,2.6,0.6
												c0.4,0,0.8,0,1.3-0.1c1.4-0.3,2.5-0.8,3.2-1.5c0.9-1,1.2-2.4,0.8-4c-0.6-2.3-1.6-4.3-2.5-6.1c-1.3-2.6-2.3-4.6-1.4-6.2
												c1.5-2.6,1.9-3,2-3c0,0,0,0,0,0l-0.3-0.6c-0.3,0.2-1.1,1.3-2.2,3.2c-1.1,1.9,0.1,4.2,1.4,6.8c0.9,1.7,1.9,3.7,2.4,5.9
												c0.5,1.8-0.1,2.8-0.6,3.3c-0.6,0.6-1.5,1-2.8,1.3c-1.3,0.2-2.3,0.1-3.4-0.4c-0.9-0.4-1.7-1-2.5-1.6
												c-1.4-1.1-2.5-2.6-3.3-4.4c-1.4-2.9-2-6.3-1.6-9.5c0.5-4.3,6.1-13.4,7.2-15.2c0,0,0,0,0,0c0.2,0.4,1.2,2.8,4.2,4.6
												c1.9,1.1,4.2,1.8,6.8,2c0.4,0,0.9,0,1.4,0c2.9,0,6.2-0.6,9.8-1.7c7.1-2.2,11.6-5.3,13.4-9.4c1.5-3.3,0.7-6.1,0.4-6.9
												c0,0,0-0.1,0-0.1c0-0.1,0-0.1,0-0.2l0,0c0-1.2-0.1-2.2-0.3-2.7c-0.3-0.9-1.4-2.2-2.9-3.9c-0.4-0.4-0.8-0.9-1.2-1.3
												c-1.9-2.2,1-6.4,1.1-6.4l0,0c0,0,0.3-0.5,0.8-0.9c0.7-0.5,1.3-0.6,2-0.4c6.6,2.6,8.8,10,9.4,15.7
												c1.3,12.1-2.5,20.3-6.2,23.7l0.5,0.5c0.3-0.2,0.5-0.5,0.8-0.8c0,1.6,0.3,4.8,1.4,8c0.6,1.7,2.1,6.2,2.6,11
												C76.5,82.3,75.7,86.3,73.5,88.7z"/>
										</g>
									</g>
								</g>
							</g>
						</g>
					</g>
				</g>
			</g>
		</g>
		<g>
			<g>
				<g>
					<g>
						<g>
							<g>
								<g>
									<g>
										<g>
											<path class="st5" d="M31,20.4l-0.2,0.2c-1.2,1.3-1.8,1.9-3,1.9c-0.1,0-0.6-0.3-1.3-1.5c-0.6-1-1.2-2.2-1.6-3.4
												c-0.6-1.9-0.5-2.8-0.2-3c0.1-0.1,0.5-0.3,1.5-0.2c2.3,0.3,5.6,1.8,6.2,2.5C32.8,17.5,33.1,18.2,31,20.4z"/>
										</g>
									</g>
								</g>
							</g>
						</g>
					</g>
				</g>
			</g>
		</g>
		<g>
			<g>
				<g>
					<g>
						<g>
							<g>
								<g>
									<g>
										<g>
											<path class="st5" d="M50.4,13.4c0-0.9,1.8-4.1,3.4-5.7C54.6,7,55,6.9,55.1,6.9c0,0,0,0,0,0c0.4,0,1.1,0.7,1.7,2.6
												c0.4,1.1,0.6,2.5,0.7,3.6c0.1,1.4-0.1,1.9-0.2,2c-0.9,0.7-1.7,0.6-3.5,0.3l-0.3-0.1C50.7,14.7,50.4,14,50.4,13.4z"/>
										</g>
									</g>
								</g>
							</g>
						</g>
					</g>
				</g>
			</g>
		</g>
		<g>
			<g>
				<g>
					<g>
						<g>
							<g>
								<g>
									<g>
										<g>
											<path class="st0" d="M67,26.3c-0.1-0.2-0.3-0.4-0.5-0.7c-0.1-0.1-0.2-0.2-0.3-0.3c-0.3-0.3-0.5-0.5-0.6-0.8
												c-0.1-0.2,0.1-0.4,0.3-0.5c0,0,0,0,0,0c0.8,0.1,1,0.9,1.1,1.3C67,25.7,67,26,67,26.3z"/>
										</g>
									</g>
								</g>
							</g>
						</g>
					</g>
				</g>
			</g>
		</g>
		<g>
			<g>
				<g>
					<g>
						<g>
							<g>
								<g>
									<g>
										<g>
											<path class="st0" d="M69.3,23.8c-0.1-0.1-0.2-0.2-0.3-0.2c-0.2-0.2-0.5-0.4-0.6-0.6c-0.1-0.1,0.1-0.3,0.2-0.4
												c0.6,0,0.9,0.6,0.9,1c0,0.2,0.1,0.4,0.1,0.6C69.5,24,69.4,23.9,69.3,23.8z"/>
										</g>
									</g>
								</g>
							</g>
						</g>
					</g>
				</g>
			</g>
		</g>
	</g>
	<g>
		<g>
			<g>
				<g>
					<g>
						<g>
							<g>
								<g>
									<g>
										<g>
											<g>
												<path class="st6" d="M63.8,20.5l-2.5-3l0-0.1c0-0.1,0.5-13.5-5.2-13.8c-6.6-0.3-9.3,9.5-9.3,9.6l-0.7-0.2
													c0-0.1,0.7-2.6,2.3-5.2c2.1-3.4,4.8-5.1,7.8-5C62.2,3.3,62,15.7,62,17.3l2.3,2.8L63.8,20.5z"/>
											</g>
										</g>
									</g>
								</g>
							</g>
						</g>
					</g>
				</g>
			</g>
			<g>
				<g>
					<g>
						<g>
							<g>
								<g>
									<g>
										<g>
											<g>
												<path class="st6" d="M40.9,47.9c-4.4,0-8-1-10.8-2.9c-4.3-3-4.8-7.3-4.8-7.3c0-0.2,0-0.4-0.1-0.6
													c-0.2-1.8-0.6-5.2,0.4-9.2c-0.1-0.4-0.7-2.6-1.8-4.1c-1.2-1.6-4.9-9.6-2.6-12.4c0.4-0.5,1.2-0.8,2.2-0.9
													c3.7-0.2,10.9,2.9,12.7,4.3c1.2-0.7,6.6-3.6,10.7-2.4l-0.2,0.7c-4.2-1.2-10.3,2.4-10.3,2.5L36,15.7l-0.2-0.2
													c-1-1-8.5-4.4-12.3-4.2c-0.8,0-1.4,0.2-1.7,0.6c-0.8,1-0.8,3.1,0.1,5.9c0.8,2.5,2,4.8,2.5,5.6c1.3,1.8,1.9,4.3,2,4.4
													l0,0.1l0,0.1c-1,3.9-0.6,7.2-0.4,9c0,0.2,0.1,0.5,0.1,0.6c0,0.4,0.3,1.5,0.9,2.7c0.8,1.6,2,3,3.6,4.1
													c4.5,3.2,11.3,3.6,20.3,1.5c9.3-2.3,14.8-6.2,16.4-11.7l0.7,0.2c-1.6,5.8-7.3,9.9-16.9,12.2
													C47.3,47.4,43.9,47.9,40.9,47.9z"/>
											</g>
										</g>
									</g>
								</g>
							</g>
						</g>
					</g>
				</g>
			</g>
			<g>
				<g>
					<g>
						<g>
							<g>
								<g>
									<g>
										<g>
											<g>
												<path class="st6" d="M28,23.2c0,0-0.1,0-0.1,0c-1.2,0-2.9-3.2-3.6-5.3c-0.5-1.4-0.8-3.1,0-3.8l0,0
													c0.4-0.3,1.1-0.4,2-0.3c2.4,0.3,5.9,1.8,6.7,2.8c0.9,1.1,0.5,2.3-1.4,4.4l-0.2,0.2C30.1,22.5,29.4,23.2,28,23.2z
													 M24.7,14.6c-0.3,0.3-0.4,1.2,0.2,3c0.9,2.6,2.5,4.8,2.9,4.8c1.2,0,1.7-0.6,3-1.9l0.2-0.2c2-2.2,1.8-2.9,1.4-3.5
													c-0.5-0.7-3.9-2.2-6.2-2.5C25.2,14.3,24.9,14.5,24.7,14.6L24.7,14.6z"/>
											</g>
										</g>
									</g>
								</g>
							</g>
						</g>
					</g>
				</g>
			</g>
			<g>
				<g>
					<g>
						<g>
							<g>
								<g>
									<g>
										<g>
											<g>
												<path class="st6" d="M55.9,16.3c-0.6,0-1.3-0.1-2.1-0.3L53.5,16c-2.7-0.5-3.8-1.2-3.8-2.7c0-1.2,1.9-4.6,3.6-6.2
													c0.7-0.7,1.3-1,1.8-1l0,0c1.1,0,1.9,1.7,2.3,3c0.7,2.2,1.2,5.7,0.3,6.4C57.2,16.2,56.6,16.3,55.9,16.3z M55.2,6.9
													c-0.2,0-0.6,0.1-1.3,0.8c-1.6,1.6-3.4,4.8-3.4,5.7c0,0.7,0.2,1.4,3.2,1.9l0.3,0.1c1.8,0.3,2.6,0.5,3.5-0.3
													c0.4-0.3,0.3-3.1-0.6-5.6C56.2,7.6,55.6,6.9,55.2,6.9C55.2,6.9,55.2,6.9,55.2,6.9z"/>
											</g>
										</g>
									</g>
								</g>
							</g>
						</g>
					</g>
				</g>
			</g>
			<g>
				<g>
					<g>
						<g>
							<g>
								<g>
									<g>
										<g>
											<g>
												<path class="st6" d="M56.7,35l-0.5-0.6c0.2-0.1,4-3.2,6.5-2.9l-0.1,0.7C60.5,32,56.8,35,56.7,35z"/>
											</g>
										</g>
									</g>
								</g>
							</g>
						</g>
					</g>
				</g>
			</g>
			<g>
				<g>
					<g>
						<g>
							<g>
								<g>
									<g>
										<g>
											<g>
												<path class="st6" d="M58,37.1l-0.3-0.7c0.4-0.2,3.9-1.8,5.3-0.9l-0.4,0.6C61.8,35.6,59.3,36.4,58,37.1z"/>
											</g>
										</g>
									</g>
								</g>
							</g>
						</g>
					</g>
				</g>
			</g>
			<g>
				<g>
					<g>
						<g>
							<g>
								<g>
									<g>
										<g>
											<g>
												<path class="st6" d="M33.9,39.3l-0.4-0.6c2.1-1.4,6.9-0.5,7.1-0.4L40.5,39C40.5,39,35.8,38.1,33.9,39.3z"/>
											</g>
										</g>
									</g>
								</g>
							</g>
						</g>
					</g>
				</g>
			</g>
			<g>
				<g>
					<g>
						<g>
							<g>
								<g>
									<g>
										<g>
											<g>
												<path class="st6" d="M35.9,42.7l-0.6-0.3c0.8-1.5,4.6-1.7,5.1-1.7l0,0.7C38.9,41.5,36.3,41.9,35.9,42.7z"/>
											</g>
										</g>
									</g>
								</g>
							</g>
						</g>
					</g>
				</g>
			</g>
			<g>
				<g>
					<g>
						<g>
							<g>
								<g>
									<g>
										<g>
											<g>
												<path class="st6" d="M53.3,30.1l-0.7-0.2c0-0.1,0.8-2.5,3-3.5c1.5-0.7,3.2-0.6,5.2,0.3l-0.3,0.7
													c-1.8-0.8-3.3-0.9-4.6-0.3C54,27.9,53.3,30.1,53.3,30.1z"/>
											</g>
										</g>
									</g>
								</g>
							</g>
						</g>
					</g>
				</g>
			</g>
			<g>
				<g>
					<g>
						<g>
							<g>
								<g>
									<g>
										<g>
											<g>
												<path class="st6" d="M41.9,33.4c-1.3-1.4-2.7-2.1-4.1-2.1c-2.1,0.1-3.6,1.9-3.6,1.9l-0.6-0.4c0.1-0.1,1.7-2.1,4.1-2.2
													c1.6-0.1,3.2,0.7,4.7,2.3L41.9,33.4z"/>
											</g>
										</g>
									</g>
								</g>
							</g>
						</g>
					</g>
				</g>
			</g>
			<g>
				<g>
					<g>
						<g>
							<g>
								<g>
									<g>
										<g>
											<g>
												
													<ellipse transform="matrix(0.8905 -0.455 0.455 0.8905 -7.372 20.0207)" class="st0" cx="37.9" cy="25.3" rx="0.7" ry="1.6"/>
											</g>
										</g>
									</g>
								</g>
							</g>
						</g>
					</g>
				</g>
			</g>
			<g>
				<g>
					<g>
						<g>
							<g>
								<g>
									<g>
										<g>
											<g>
												
													<ellipse transform="matrix(0.8423 -0.5389 0.5389 0.8423 -8.6734 23.4383)" class="st0" cx="35.7" cy="26.5" rx="0.6" ry="1.2"/>
											</g>
										</g>
									</g>
								</g>
							</g>
						</g>
					</g>
				</g>
			</g>
			<g>
				<g>
					<g>
						<g>
							<g>
								<g>
									<g>
										<g>
											<g>
												
													<ellipse transform="matrix(0.9999 -1.233030e-02 1.233030e-02 0.9999 -0.2653 0.6684)" class="st0" cx="54.1" cy="21.8" rx="0.7" ry="1.6"/>
											</g>
										</g>
									</g>
								</g>
							</g>
						</g>
					</g>
				</g>
			</g>
			<g>
				<g>
					<g>
						<g>
							<g>
								<g>
									<g>
										<g>
											<g>
												
													<ellipse transform="matrix(8.438495e-02 -0.9964 0.9964 8.438495e-02 29.9691 76.4289)" class="st0" cx="56.6" cy="21.9" rx="1.2" ry="0.6"/>
											</g>
										</g>
									</g>
								</g>
							</g>
						</g>
					</g>
				</g>
			</g>
			<g>
				<g>
					<g>
						<g>
							<g>
								<g>
									<g>
										<g>
											<g>
												<path class="st4" d="M50.1,36.1c0.1,0.4-0.7,1.2-1.4,1.4c-0.6,0.2-1.8-0.1-1.9-0.5c-0.1-0.4,0.5-0.9,1.5-1.2
													C49.3,35.5,50,35.7,50.1,36.1z"/>
											</g>
										</g>
									</g>
								</g>
							</g>
						</g>
					</g>
				</g>
				<g>
					<g>
						<g>
							<g>
								<g>
									<g>
										<g>
											<g>
												<path class="st6" d="M48.3,37.9c-0.7,0-1.7-0.3-1.8-0.9c-0.2-0.7,0.5-1.3,1.7-1.6c1.2-0.3,2.1,0,2.2,0.6v0
													c0.2,0.7-0.9,1.6-1.6,1.8C48.7,37.9,48.5,37.9,48.3,37.9z M49.1,36c-0.2,0-0.4,0-0.7,0.1c-0.9,0.2-1.2,0.6-1.2,0.7
													c0.1,0.2,0.9,0.4,1.5,0.3c0.5-0.1,1.1-0.7,1.1-0.9C49.7,36.1,49.5,36,49.1,36z"/>
											</g>
										</g>
									</g>
								</g>
							</g>
						</g>
					</g>
				</g>
			</g>
			<g>
				<g>
					<g>
						<g>
							<g>
								<g>
									<g>
										<g>
											<g>
												
													<rect x="48.5" y="37.2" transform="matrix(0.9708 -0.24 0.24 0.9708 -7.7372 12.8374)" class="st6" width="0.7" height="1.9"/>
											</g>
										</g>
									</g>
								</g>
							</g>
						</g>
					</g>
				</g>
			</g>
			<g>
				<g>
					<g>
						<g>
							<g>
								<g>
									<g>
										<g>
											<g>
												<path class="st6" d="M50.6,40.8c-0.8,0-1.6-0.4-1.9-1.8l0.7-0.2c0.3,1.1,0.8,1.4,1.8,1.2c0.5-0.1,0.9-0.5,1.2-1.1
													l0.7,0.3c-0.3,0.8-0.9,1.3-1.7,1.5C51.1,40.8,50.9,40.8,50.6,40.8z"/>
											</g>
										</g>
									</g>
								</g>
							</g>
						</g>
					</g>
				</g>
			</g>
			<g>
				<g>
					<g>
						<g>
							<g>
								<g>
									<g>
										<g>
											<g>
												<path class="st6" d="M47.3,41.7c-0.6,0-1.2-0.2-1.6-0.6l0.5-0.6c0.5,0.4,1,0.5,1.5,0.4c0.5-0.1,0.8-0.3,1-0.6
													c0.2-0.3,0.2-0.7,0-1.3l0.7-0.2c0.2,0.7,0.1,1.3-0.1,1.8c-0.3,0.5-0.7,0.8-1.4,1C47.7,41.7,47.5,41.7,47.3,41.7z"/>
											</g>
										</g>
									</g>
								</g>
							</g>
						</g>
					</g>
				</g>
			</g>
			<g>
				<g>
					<g>
						<g>
							<g>
								<g>
									<g>
										<g>
											<g>
												<path class="st6" d="M44.1,52.5c-2.9,0-5.7-0.5-8.2-2c-3.3-1.9-4.2-4.6-4.3-4.7l0.7-0.2c0,0,0.9,2.5,4,4.3
													c2.8,1.7,8.2,3.1,17.4,0.2c6.9-2.1,11.3-5.1,13-9c1.6-3.5,0.3-6.5,0.3-6.5l0.7-0.3c0.1,0.1,1.4,3.3-0.3,7.1
													c-1.8,4-6.4,7.2-13.4,9.4C51.1,51.8,47.6,52.5,44.1,52.5z"/>
											</g>
										</g>
									</g>
								</g>
							</g>
						</g>
					</g>
				</g>
			</g>
		</g>
		<g>
			<g>
				<g>
					<g>
						<g>
							<g>
								<g>
									<g>
										<g>
											<g>
												<path class="st6" d="M71.1,58.6l-0.5-0.5c3.7-3.4,7.5-11.6,6.2-23.7c-0.6-5.7-2.7-13.1-9.4-15.7
													c-1.7-0.6-2.8,1.2-2.9,1.3l0,0c0,0-3,4.3-1.1,6.4c0.4,0.5,0.8,0.9,1.2,1.3c1.5,1.7,2.7,3,2.9,3.9c0.2,0.5,0.3,1.6,0.3,3
													l-0.7,0c0.1-1.3-0.1-2.3-0.2-2.7c-0.2-0.8-1.4-2-2.8-3.6c-0.4-0.4-0.8-0.9-1.2-1.3c-1-1.1-1.1-2.7-0.3-4.7
													c0.5-1.4,1.3-2.5,1.4-2.6c0.5-0.9,2-2.3,3.7-1.6c7,2.7,9.2,10.4,9.8,16.3c0.6,5.7,0.2,10.9-1.3,15.6
													C75,53.6,73.2,56.7,71.1,58.6z"/>
											</g>
										</g>
									</g>
								</g>
							</g>
						</g>
					</g>
				</g>
			</g>
			<g>
				<g>
					<g>
						<g>
							<g>
								<g>
									<g>
										<g>
											<g>
												<path class="st6" d="M63.3,95.7c-4.5,0-5.3-2.2-5.5-2.9c-0.3-1.3,0.4-2.5,1.6-3.1c2.4-1.1,5.5-1.2,5.7-1.2l0,0.7
													c0,0-3.1,0.1-5.4,1.1c-0.9,0.4-1.4,1.3-1.2,2.2c0.4,1.8,2.9,2.4,5.1,2.3c6-0.1,9.8-6.2,9.9-6.2l0-0.1
													c2.2-2.4,3-6.4,2.4-11.9c-0.5-4.7-2-9.3-2.6-11c-1.5-4.3-1.4-8.8-1.4-9l0.7,0c0,0-0.1,4.5,1.4,8.7
													c0.6,1.7,2.1,6.3,2.7,11.1c0.6,5.7-0.2,9.9-2.5,12.5c-0.3,0.5-4.2,6.4-10.4,6.5C63.5,95.7,63.4,95.7,63.3,95.7z"/>
											</g>
										</g>
									</g>
								</g>
							</g>
						</g>
					</g>
				</g>
			</g>
			<g>
				<g>
					<g>
						<g>
							<g>
								<g>
									<g>
										<g>
											<g>
												<path class="st6" d="M34.1,77.8c-0.9,0-1.7-0.2-2.6-0.6c-0.9-0.5-1.8-1-2.6-1.7c-1.4-1.2-2.6-2.8-3.5-4.6
													c-1.5-3-2-6.5-1.7-9.9c0.6-5,7.2-15.4,7.5-15.8l0.6,0.4c-0.1,0.1-6.8,10.7-7.4,15.5c-0.4,3.2,0.2,6.6,1.6,9.5
													c0.8,1.8,1.9,3.2,3.3,4.4c0.7,0.6,1.6,1.2,2.5,1.6c1.2,0.6,2.1,0.7,3.4,0.4c1.3-0.2,2.2-0.7,2.8-1.3
													c0.9-1,0.8-2.4,0.6-3.3c-0.6-2.2-1.6-4.2-2.4-5.9c-1.3-2.7-2.5-4.9-1.4-6.8c1.1-1.9,1.9-3.1,2.2-3.2l0.3,0.6
													c0,0,0,0,0,0c0,0-0.5,0.4-2,3c-0.9,1.6,0.1,3.6,1.4,6.1c0.9,1.8,1.9,3.8,2.5,6.1c0.4,1.6,0.1,3.1-0.8,4
													c-0.7,0.7-1.7,1.2-3.2,1.5C35,77.8,34.5,77.8,34.1,77.8z"/>
											</g>
										</g>
									</g>
								</g>
							</g>
						</g>
					</g>
				</g>
			</g>
			<g>
				<g>
					<g>
						<g>
							<g>
								<g>
									<g>
										<g>
											<g>
												<path class="st6" d="M38.1,95.6c-1.3,0-2.3-0.2-2.4-0.2l0,0l0,0c-7.5-3.6-8.6-7.5-9.3-12.6c-0.7-5,1.5-8.4,1.6-8.5
													l0.6,0.4c0,0-2.1,3.3-1.4,8c0.7,5.1,1.7,8.6,8.8,12c0.4,0.1,3.5,0.6,5.1-0.4c0.5-0.3,0.8-0.8,0.9-1.3
													c0.2-1.1,0.1-2-0.3-2.6c-0.4-0.5-0.8-0.6-0.8-0.6l0.1-0.7c0,0,0.8,0.1,1.3,0.8c0.5,0.7,0.7,1.8,0.5,3.1
													c-0.1,0.8-0.5,1.4-1.2,1.8C40.5,95.4,39.2,95.6,38.1,95.6z"/>
											</g>
										</g>
									</g>
								</g>
							</g>
						</g>
					</g>
				</g>
			</g>
			<g>
				<g>
					<g>
						<g>
							<g>
								<g>
									<g>
										<g>
											<g>
												<path class="st6" d="M50.3,95.2c-1.4,0-2.6-0.1-3.6-0.3c-3-0.5-4.9-1.5-4.9-1.6l0.3-0.6c0.1,0,7.4,3.9,16.1,0.1l0.3,0.7
													C55.6,94.8,52.7,95.2,50.3,95.2z"/>
											</g>
										</g>
									</g>
								</g>
							</g>
						</g>
					</g>
				</g>
			</g>
		</g>
		<g>
			<g>
				<g>
					<g>
						<g>
							<g>
								<g>
									<g>
										<g>
											<path class="st6" d="M67.2,28.2l-0.3-0.7c-0.2-0.5-0.5-0.9-0.9-1.4c-0.1-0.1-0.2-0.2-0.3-0.3c-0.3-0.3-0.6-0.6-0.8-1.1
												c-0.3-0.7,0.3-1.2,0.7-1.4l0,0c0.1-0.1,0.3,0,0.3,0l0,0c0.9,0.1,1.6,0.8,1.7,2c0.1,0.6,0.1,1.6-0.2,2.2L67.2,28.2z
												 M65.9,24c-0.1,0.1-0.3,0.3-0.3,0.5c0.1,0.3,0.4,0.6,0.6,0.8c0.1,0.1,0.2,0.2,0.3,0.3c0.2,0.2,0.4,0.4,0.5,0.7
												c0-0.3,0-0.6-0.1-0.9C66.9,24.9,66.7,24.1,65.9,24C65.9,24,65.9,24,65.9,24z"/>
										</g>
									</g>
								</g>
							</g>
						</g>
					</g>
				</g>
			</g>
		</g>
		<g>
			<g>
				<g>
					<g>
						<g>
							<g>
								<g>
									<g>
										<g>
											<path class="st6" d="M70,26.1l-0.4-0.7c-0.2-0.4-0.5-0.7-0.8-1.1c-0.1-0.1-0.2-0.1-0.2-0.2c-0.3-0.2-0.6-0.5-0.7-0.9
												c-0.3-0.6,0.2-1.1,0.5-1.3l0,0c0.1-0.1,0.2-0.1,0.3-0.1c0.8,0,1.4,0.6,1.6,1.6c0.1,0.5,0.2,1.3,0,1.9L70,26.1z
												 M68.6,22.5c-0.1,0.1-0.2,0.2-0.2,0.4c0.1,0.2,0.3,0.4,0.6,0.6c0.1,0.1,0.2,0.2,0.3,0.2c0.1,0.1,0.2,0.3,0.4,0.4
												c0-0.2,0-0.4-0.1-0.6C69.5,23.1,69.2,22.5,68.6,22.5z"/>
										</g>
									</g>
								</g>
							</g>
						</g>
					</g>
				</g>
			</g>
		</g>
	</g>
	<g>
		<g>
			<g>
				<g>
					<g>
						<g>
							<g>
								<g>
									<g>
										<circle class="st5" cx="53.7" cy="50.8" r="3.4"/>
									</g>
								</g>
							</g>
						</g>
					</g>
				</g>
			</g>
		</g>
		<g>
			<g>
				<g>
					<g>
						<g>
							<g>
								<g>
									<g>
										<path class="st6" d="M53.7,54.6c-2.1,0-3.8-1.7-3.8-3.8c0-2.1,1.7-3.8,3.8-3.8c2.1,0,3.8,1.7,3.8,3.8
											C57.5,52.9,55.8,54.6,53.7,54.6z M53.7,47.7c-1.7,0-3.1,1.4-3.1,3.1s1.4,3.1,3.1,3.1s3.1-1.4,3.1-3.1S55.4,47.7,53.7,47.7
											z"/>
									</g>
								</g>
							</g>
						</g>
					</g>
				</g>
			</g>
		</g>
	</g>
	<g>
		<g>
			<g>
				<g>
					<g>
						<g>
							<g>
								<g>
									<g>
										<circle class="st3" cx="53.7" cy="50.8" r="1.6"/>
									</g>
								</g>
							</g>
						</g>
					</g>
				</g>
			</g>
		</g>
		<g>
			<g>
				<g>
					<g>
						<g>
							<g>
								<g>
									<g>
										<path class="st7" d="M53.7,52.8c-1.1,0-2-0.9-2-2c0-1.1,0.9-2,2-2s2,0.9,2,2C55.7,51.9,54.8,52.8,53.7,52.8z M53.7,49.5
											c-0.7,0-1.3,0.6-1.3,1.3c0,0.7,0.6,1.3,1.3,1.3s1.3-0.6,1.3-1.3C54.9,50.1,54.4,49.5,53.7,49.5z"/>
									</g>
								</g>
							</g>
						</g>
					</g>
				</g>
			</g>
		</g>
	</g>
</g>
</svg>
